<?xml version="1.0" encoding="iso-8859-1"?>
<!-- Generator: Adobe Illustrator 21.0.2, SVG Export Plug-In . SVG Version: 6.00 Build 0)  -->
<svg version="1.1" id="Layer_1" xmlns="http://www.w3.org/2000/svg" xmlns:xlink="http://www.w3.org/1999/xlink" x="0px" y="0px"
	 viewBox="0 0 562.727 326.818" style="enable-background:new 0 0 562.727 326.818;" xml:space="preserve">
<g>
	<g>
		<g>
			<defs>
				<path id="SVGID_1_" d="M547.468,321.071c2.707,0,4.902-2.195,4.902-4.902V13.278c0-2.709-2.195-4.902-4.902-4.902H15.537
					c-2.705,0-4.9,2.193-4.9,4.902v302.891c0,2.707,2.195,4.902,4.9,4.902H547.468z"/>
			</defs>
			<clipPath id="SVGID_2_">
				<use xlink:href="#SVGID_1_"  style="overflow:visible;"/>
			</clipPath>
			<path style="clip-path:url(#SVGID_2_);fill-rule:evenodd;clip-rule:evenodd;fill:#976A2E;" d="M547.468,321.071
				c2.707,0,4.902-2.195,4.902-4.902V13.278c0-2.709-2.195-4.902-4.902-4.902H15.537c-2.705,0-4.9,2.193-4.9,4.902v302.891
				c0,2.707,2.195,4.902,4.9,4.902H547.468z"/>
			<g style="opacity:0.5;clip-path:url(#SVGID_2_);">
				<g style="opacity:0.47;">
					<path style="fill:#96836F;" d="M843.031,61.063c-39.625,1.021-74.336,1.887-97.346,2.451
						c-24.023,4.535-92.844,7.619-124.771,10.469c51.846,0.998,135.014,2.537,222.117,3.93V61.063z"/>
					<path style="fill:#96836F;" d="M834.81,132.334c1,0.049,2.152,0.098,3.277,0.15l0.057-0.189
						C837.269,132.299,836.181,132.319,834.81,132.334z"/>
					<path style="fill:#96836F;" d="M81.63,148.264c-64.023,0.381-190.066-3.432-226.078-3.432c-36.014,0-155.049,0-220.076,0.377
						c-17.666,0.109-40.207-0.07-63.666-0.385v2.699c22.633,0.16,41.725,0.193,50.662-0.029c31.01-0.76,200.068,0.389,237.078,0
						c37.016-0.375,179.064,3.057,217.07,3.057c38.01,0,186.063-1.143,211.067-1.143c25.01,0,108.039-1.525,141.049-2.289
						c33.014-0.764,22.012-2.287,36.014-3.436c14-1.145,94.027,2.287,114.037,3.051c17.488,0.666,214.879,3.379,264.244,4.051
						v-3.012c-7.566-0.129-17.344-0.416-23.869-1.039c-12.004-1.145-334.41-4.574-361.416-5.344
						c-27.004-0.762-69.017-0.762-120.035,2.678C286.691,147.494,145.646,147.883,81.63,148.264z"/>
					<path style="fill:#96836F;" d="M843.031,160.344c-1.963-0.084-3.684-0.158-5.088-0.217l5.088,1.605V160.344z"/>
					<path style="fill:#96836F;" d="M843.031,163.877c-7.666,0.182-21.732,0.518-39.064,0.934c-0.205,0.277-0.16,0.564,0.371,0.846
						c0,0,14.889,0.557,38.693,1.424V163.877z"/>
					<path style="fill:#96836F;" d="M833.084,159.928c-0.019,0.006-0.092,0.008-0.115,0.012c0.096,0,0.227-0.004,0.322-0.004
						C833.246,159.934,833.084,159.928,833.084,159.928z"/>
					<path style="fill:#96836F;" d="M72.535,268.869c5.998-4.574,107.031,0,139.045,0c32.008,0,89.025-5.344,119.037-9.156
						c30.014-3.82,168.055-9.92,208.061-11.066c34.867-0.998,209.305,0.436,262.939,0.727l36.289,0.24c0,0,1.807-0.035,5.125-0.102
						v-6.268c-74.805,0.762-259.906,2.615-263.338,2.348c-5-0.379-104.029,3.436-139.033,5.725c0,0-96.033,4.203-153.061,10.305
						c-57.014,6.098-151.041,5.344-203.059,3.816c-52.021-1.529-96.037-3.436-94.035,3.051c0.803,2.594,19.572,6.047,48.307,9.787
						c14.49-0.654,29.107-1.248,43.805-1.775C71.464,274.117,68.689,271.807,72.535,268.869z"/>
					<path style="fill:#96836F;" d="M843.031,56.317c-35.568,0.781-67.402,1.48-91.775,2.016c1.607,0.484,2.607,1.025,2.883,1.637
						c0.582,1.279-2.66,2.459-8.453,3.545c23.01-0.564,57.721-1.43,97.346-2.451V56.317z"/>
					<path style="fill:#96836F;" d="M843.031,77.912c-87.104-1.393-170.271-2.932-222.117-3.93
						c-4.695,0.424-8.633,0.834-11.467,1.242c-21.145,3.09-33.611,4.004-46.887,5.604c39.512,0.492,157.432,1.92,280.471,3.023
						V77.912z"/>
					<path style="fill:#96836F;" d="M843.031,96.219c-3.354-0.072-6.596-0.143-9.682-0.205c-15.555,0.615-39.164,1.567-66.678,2.676
						c17.211,0.572,44.445,1.479,76.359,2.551V96.219z"/>
					<path style="fill:#96836F;" d="M843.031,120.785c-181.957,1.537-376.279,3.338-376.279,3.338l3.445,0.27
						c10.961,0.537,22.078,1.082,33.004,1.611c41.957-0.164,188.77-0.73,339.83-1.197V120.785z"/>
					<path style="fill:#96836F;" d="M843.031,129.457c-0.328-0.004-0.643-0.012-0.93-0.016l-1.709,2.822
						c0,0-0.826,0.014-2.248,0.031l-0.057,0.189l-0.096,0.334c0,0,1.775,0.035,5.039,0.098V129.457z"/>
					<path style="fill:#96836F;" d="M-428.19,190.883v3.125c39.271,0.24,76.959,0.525,97.684,0.809
						c56.012,0.762,174.053,2.289,204.066,0.762c30.006-1.525,48.012-4.578,78.019-0.762c30.016,3.814,86.027,11.441,122.041,9.158
						c36.01-2.289,146.049-3.816,192.065-3.816c46.016,0,92.033,3.816,132.041,1.527c40.012-2.297,76.025,3.055,116.041,1.525
						c40.008-1.525,283.385-3.053,305.395-3.822c4.392-0.15,12.965-0.432,23.869-0.781v-4.545
						c-94.795,1.42-232.242,3.588-259.24,4.568c-42.014,1.527-77.029,3.436-108.037,1.91c-31.012-1.529-48.012-1.529-89.029-1.529
						c-41.012,0-94.033-2.287-144.047-1.145c-50.014,1.145-128.047,1.521-153.055,2.674c-25.002,1.145-46.01,1.91-70.021-1.152
						c-24.006-3.047-71.02-9.531-99.027-10.297c-28.014-0.762-60.02,2.668-103.033,3.051
						C-206.979,192.358-328.346,191.588-428.19,190.883z"/>
					<path style="fill:#96836F;" d="M-428.19,168.104v4.014c72.15-0.383,146.682-0.955,155.699-1.723
						c18.006-1.529,68.025,1.146,91.025,2.674c23.008,1.527,57.027,3.428,92.033,4.57c35.014,1.152,95.033,1.91,125.047,2.299
						c30.002,0.379,51.008,2.664,80.023,2.289c29.01-0.387,115.033,4.195,159.047,4.963c44.014,0.754,102.039,1.902,148.051,1.902
						c46.02,0,121.043,1.521,148.047,1.908c21.564,0.305,195.09,1.096,264.123,1.396v0.357c0,0,3.334,0,8.125,0.064v-3.006
						c-5.213-0.068-8.125-0.109-8.125-0.109v0.109c-6.357-0.109-12.459-0.223-16.748-0.34c-14.002-0.381-298.395,0-343.402-1.908
						c-45.02-1.908-122.037-1.143-164.057-2.67c-42.014-1.527-136.041-2.668-222.076-5.717
						c-86.019-3.057-122.035-4.965-150.045-4.965c-28.01,0-127.037-3.438-155.051-5.729c-28.008-2.287-147.047-0.381-210.07-0.381
						C-427.09,168.104-427.645,168.104-428.19,168.104z"/>
					<path style="fill:#96836F;" d="M-428.19,156.619c53.191-0.395,160.344-1.07,207.713,0.039
						c49.016,1.146,100.035,3.053,132.049,4.578c32.008,1.527,70.023,2.285,145.047,2.674c75.023,0.377,210.066,0.76,265.088-0.762
						c55.018-1.527,134.969,7.934,175.975,6.791c41.014-1.148,114.924-1.004,140.932-1.385
						c17.703-0.258,108.893-2.402,165.354-3.744c17.332-0.416,31.398-0.752,39.064-0.934v-2.145l-5.088-1.605l-0.871-0.266
						c0,0-1.369,0.023-3.781,0.074c-0.096,0-0.227,0.004-0.322,0.004c-34.914,0.689-288.09,5.676-328.121,7.1
						c-43.008,1.52-158.137-5.803-219.152-5.803c-61.023,0-150.061,0-201.066,0.385C33.613,162-2.403,163.149-36.413,161.237
						c-34.016-1.91-101.039-4.578-147.047-5.725c-46.016-1.148-105.037-1.904-173.057-1.904c-26.943,0-50.889,0.24-71.674,0.623
						V156.619z"/>
					<path style="fill:#96836F;" d="M-121.442,123.844c-53.02,0-101.029,2.285-182.059,6.104
						c-60.617,2.855-94.918,4.854-124.689,5.361v3.305c30.209-0.766,62.217-2.318,101.68-4.469
						c63.025-3.441,153.057-7.631,180.063-7.631c27.012,0,97.031,0.381,187.063-3.055c90.023-3.432,83.025-1.139,131.037-3.432
						c48.018-2.291,216.07,3.432,283.094,5.721c20.022,0.686,63.637,1.988,114.859,3.463c-17.834-0.855-41.557-1.99-66.404-3.207
						c-10.926-0.529-22.043-1.074-33.004-1.611c-17.492-0.859-34.535-1.703-49.461-2.461c-68.018-3.432-152.051-3.432-202.065-3.814
						c-50.02-0.381-101.037,0-169.057,3.053C-18.405,124.225-68.426,123.844-121.442,123.844z"/>
					<path style="fill:#96836F;" d="M838.144,132.295c1.422-0.018,2.248-0.031,2.248-0.031l1.709-2.822l0.332-0.559l-218.26,1.9
						c4.148,0.119,8.289,0.24,12.461,0.359l-7.664-0.088c89.506,2.334,182.529,1.533,205.84,1.279
						C836.181,132.319,837.269,132.299,838.144,132.295z"/>
					<path style="fill:#96836F;" d="M569.605,129.211c18.822,0.908,31.184,1.492,31.184,1.492l28.182,0.352l7.664,0.088
						c-4.172-0.119-8.313-0.24-12.461-0.359C605.511,130.252,587.121,129.729,569.605,129.211z"/>
					<path style="fill:#96836F;" d="M412.734,110.867c-75.023,2.291-159.057,0.76-159.057,0.76s-158.045,0.385-218.062-0.377
						c-60.025-0.766-118.041-0.383-181.066,3.814c-63.019,4.197-131.037,7.256-158.049,8.395
						c-21.674,0.918-74.262,1.836-124.689,1.768v2.434c25.471-0.361,51.068-1.147,69.674-1.147
						c29.006,0,149.051-4.582,187.055-7.631c38.016-3.053,66.025-3.818,110.039-4.967c44.016-1.139,95.035,0.77,129.039,0.383
						c34.012-0.383,175.061-0.383,217.072,0.387c42.012,0.762,184.066-2.674,232.078-5.35
						c30.852-1.711,160.844-7.045,249.904-10.646c27.514-1.109,51.123-2.06,66.678-2.676c3.701-0.146,6.939-0.279,9.682-0.385
						v-4.443c-41.848,0.863-232.117,5.012-263.25,9.766C544.775,106.287,487.761,108.582,412.734,110.867z"/>
					<path style="fill:#96836F;" d="M17.607,26.16c30.004,4.963,133.037,19.076,190.053,25.562
						c57.02,6.488,212.078,6.1,257.09,10.307c45.012,4.191,111.574,19.689-99.355,34.57c-59.035,4.17-270.762,1.68-317.783,1.68
						c-47.014,0-47.014-0.764-134.043,6.104c-87.021,6.867-156.047,5.725-227.074,7.244c-27.844,0.6-71.68,1.258-114.684,1.838
						v4.873c34.713-0.24,68.857-0.471,91.676-0.602c65.027-0.381,167.059-4.199,219.072-7.252
						c52.014-3.053,106.031-4.961,134.045-6.101c28.008-1.145,114.035-1.145,154.049,0.764c40.02,1.904,193.813,2.193,232.078-1.154
						c49.832-4.342,97.762-11.971,132.629-18.838c10.777-2.123,19.137-3.348,27.201-4.326c13.275-1.6,25.742-2.514,46.887-5.604
						c2.834-0.408,6.771-0.818,11.467-1.242c31.928-2.85,100.748-5.934,124.771-10.469c5.793-1.086,9.035-2.266,8.453-3.545
						c-0.275-0.611-1.275-1.152-2.883-1.637c-23.57-7.188-181.922-2.229-232.488-5.076c-54.017-3.06-114.033-2.674-198.066-4.582
						c-84.029-1.912-132.041-1.912-205.063-12.594C42.609,25.397,10.603,19.283-14.409,15.85c-7.234-0.992-16.908-2.207-28.52-3.502
						h-95.4c6.545,0.418,13.488,0.828,20.887,1.217C-38.414,17.76-12.407,21.192,17.607,26.16z"/>
					<path style="fill:#96836F;" d="M-428.19,36.158c24.223,1.547,50.721,3.293,75.674,4.498
						c63.02,3.045,79.029,6.869,83.025,14.496c4.002,7.637-63.02,10.686-94.029,9.541c-17.17-0.635-39.861-1.004-64.67-0.111v2.555
						c31.689-0.869,84.877,1.662,113.685,0.994c33.014-0.766,82.031-10.682,78.025-16.408c-4.008-5.726-68.02-10.691-98.033-12.594
						c-24.865-1.58-61.395-4.203-93.678-6.576V36.158z"/>
					<path style="fill:#96836F;" d="M-428.19,28.246c41.648,1.924,101.609,5.273,113.685,5.549
						c17.002,0.375,120.033,6.861,156.047,8.389c36.012,1.518,63.023,6.49,75.033,12.592c11.996,6.104-89.035,14.879-144.049,20.994
						c-55.023,6.098-86.033,6.479-140.049,12.582c-15.213,1.721-37.09,2.592-60.668,2.955v2.488
						c25.414-0.236,59.768-0.148,72.674-3.529c16.002-4.203,58.014-4.584,74.025-7.254c16.002-2.674,134.043-12.59,155.051-14.117
						c21.004-1.529,114.033-5.346,115.029-10.684c1.006-5.346-70.018-9.537-110.031-15.262
						c-40.016-5.729-107.037-6.492-107.037-6.492l-163.051-8.775c0,0-14.402-0.434-36.66-1.387V28.246z"/>
					<path style="fill:#96836F;" d="M-428.19,16.883v3.92c4.072,0.035,7.978,0.043,11.652,0.016
						c44.012-0.381,185.059,3.424,221.072,3.815c36.012,0.375,107.037,7.242,135.039,11.447
						c28.01,4.195,99.041,12.969,133.049,17.555c34.01,4.576,79.029,7.244,91.025,14.496c12.01,7.25-104.029,7.25-183.059,14.881
						c-79.019,7.633-198.066,8.391-238.074,9.545c-39.91,1.137-128.559,6.83-170.705,9.516v2.104
						c33.603-1.248,87.486-2.641,105.685-4.756c23.008-2.67,182.055-4.963,213.065-5.725
						c31.012-0.758,143.053-10.684,164.057-12.207c21.006-1.531,149.049-4.963,175.057-7.641c26.01-2.664,33.01-8.389,10.004-13.35
						c-23.004-4.963-134.045-6.488-158.047-9.916C57.617,47.147-26.416,38.367-54.418,33.03
						c-28.008-5.348-86.031-10.68-124.039-12.211c-38.016-1.535-140.051-5.344-205.07-4.199
						C-401.616,16.936-415.981,16.989-428.19,16.883z"/>
					<path style="fill:#96836F;" d="M843.031,44.789v-2.828l-48.918-1.875c0,0-186.32-0.957-227.336,1.715
						c-41.016,2.67-105.027,1.148-158.047,1.9c-53.012,0.77-129.043-4.572-150.047-6.096
						c-21.006-1.525-96.031-10.305-129.043-14.502c-30.373-3.861-41.258-6.758-38.129-10.756H12.683
						c16.014,6.695,121.178,17.453,215.984,25.258c102.035,8.391,207.074,9.92,260.088,8.391
						c53.021-1.525,309.449,1.814,309.449,1.814L843.031,44.789z"/>
					<path style="fill:#96836F;" d="M843.031,30.028v-3.744c-56.66,0.383-217.016,1.713-274.25,4.84
						c-70.023,3.813-277.088,2.285-283.086-6.115c-6.008-8.389,109.031-9.533,140.043-12.203c1.746-0.15,3.396-0.303,4.986-0.457
						h-35.473c-36.66,1.69-88.045,3.436-122.57,3.127c-42.01-0.385-71.016-0.764-68.016,4.572
						c2.994,5.35,85.025,11.457,132.039,13.361c47.014,1.904,131.047,2.281,160.051,1.527
						C512.324,34.524,685.675,32.145,843.031,30.028z"/>
					<path style="fill:#96836F;" d="M-428.19,250.026c55.213,1.869,104.945,5.928,138.611,8.166
						c46.01,3.049,73.02,8.773,152.049,12.967c63.414,3.377,92.674,6.25,117.273,9.82c8.691-0.375,17.473-0.766,26.353-1.182
						c-16.912-2.756-29.467-4.818-40.602-6.354c-25.002-3.426-79.017-9.535-142.047-12.203
						c-63.016-2.668-159.047-9.541-218.068-12.594c-9.672-0.5-21.15-0.867-33.57-1.129V250.026z"/>
					<path style="fill:#96836F;" d="M-428.19,286.805c10.045,0.498,20.486,1.027,30.629,1.545c13.709,0.102,29,0.154,45.764,0.152
						l-59.826-3.223c0,0-6.135-0.188-16.566-0.58V286.805z"/>
					<path style="fill:#96836F;" d="M-428.19,274.504v3.881c51.309,0.066,178.666,3.477,212.627,3.842
						c15.785,0.162,38.295,1.58,60.953,3.471c11.967-0.332,24.234-0.689,36.748-1.076c-26.768-2.918-57.455-5.274-80.691-6.211
						c-38.014-1.527-140.043-5.344-205.066-4.197C-412.682,274.375-420.803,274.465-428.19,274.504z"/>
					<path style="fill:#96836F;" d="M529.683,266.965c-16.783-0.377-29.674,2.598-44.438,6.711c3.43,0.043,6.787,0.102,10.162,0.164
						c8.154-2.647,8.459-3.92,17.267-4.588c10.002-0.764,49.014,0,52.018,3.057c0.773,0.783,0.068,1.773-1.596,2.81
						c3.793,0.084,7.6,0.168,11.289,0.254c0.992-0.682,1.48-1.338,1.314-1.924C574.693,270.018,546.683,267.34,529.683,266.965z"/>
					<path style="fill:#96836F;" d="M360.63,245.213c16.004-2.676,38.006-8.774,81.023-12.211
						c43.017-3.438,57.017-4.582,90.031-2.672c22.037,1.279,197.301,6.463,311.346,9.768v-3.564
						c-110.635-2.557-265.744-6.234-275.332-6.969c-15.01-1.144-54.021-2.672-63.027-3.047c-9-0.383-84.023,5.719-113.027,9.156
						c-29.018,3.434-58.027,8.396-67.025,10.301c-9.006,1.906-78.031,4.201-103.035,8.398c-25.01,4.199-31.008,0.756-65.018,0.381
						c-34.02-0.381-152.049-0.381-185.061-0.764c-33.016-0.387-63.025-4.197-115.043-8.398c-52.018-4.195-74.025-5.338-91.027-6.105
						c-17.01-0.76-55.014,1.91-55.014,1.91c8.002-0.383,46.01,0.766,86.025,3.434c40.016,2.67,59.02,3.816,108.033,8.398
						c49.018,4.572,68.021,3.814,168.055,4.197c100.033,0.375,138.039,1.146,166.053-1.152
						C266.597,253.99,358.795,245.518,360.63,245.213z"/>
					<path style="fill:#96836F;" d="M-428.19,215.696c58.707-3.602,82.1-0.473,157.613,1.664
						c81.023,2.289,208.07,10.68,317.105,14.121c109.033,3.428,125.035,3.811,161.049,2.283
						c36.01-1.527,162.055-9.541,201.064-12.213c39.012-2.666,108.035-0.379,127.035,0.387c17.398,0.693,265.289,1.395,307.354,1.51
						v-5.645c-185.227-0.48-362.338-1.064-384.367-1.59c-48.02-1.143-134.045,4.578-199.064,11.064
						c-65.025,6.486-98.039,4.203-135.051,4.203c-37.008,0-197.057-6.492-244.08-10.309c-47.014-3.813-180.053-7.248-226.068-9.154
						c-30.941-1.285-52.4-0.84-82.59,1.215V215.696z"/>
					<path style="fill:#96836F;" d="M-73.514,202.094c-35.01,1.143-61.016,11.83-89.027,10.305
						c-28.01-1.527-85.027-9.543-140.051-8.398c-41.313,0.857-92.217,2.367-125.598,3.223v1.941
						c9.092-0.297,17.434-0.617,24.57-0.963c55.02-2.676,122.043-4.201,161.055-0.383c39.012,3.813,64.023,9.922,87.021,7.635
						c23.008-2.291,61.02-12.98,79.029-11.453c18.002,1.525,18.002,2.674,58.023,8.018c40.008,5.342,97.023,6.867,137.041,6.484
						c40.01-0.387,121.041-3.81,150.049-3.049c29.008,0.76,50.014,1.139,93.029-1.91c43.016-3.055,95.033-7.254,134.043-7.637
						c29.734-0.287,246.105,2.668,347.359,4.084v-2.385c-113.32-1.922-306.273-4.81-360.361-3.223
						c-78.025,2.291-144.051,11.07-196.066,9.92c-52.016-1.141-152.049,3.057-218.072,0.389
						C2.511,212.018-38.5,200.953-73.514,202.094z"/>
					<path style="fill:#96836F;" d="M-428.19,225.442l58.076,0.883l159.057,7.439l84.867,0.549
						c-31.184-0.738-248.418-10.281-248.418-10.281l-53.582,0.873V225.442z"/>
					<path style="fill:#96836F;" d="M-126.19,234.313c2.105,0.045,3.375,0.057,3.66,0.027L-126.19,234.313z"/>
					<path style="fill:#96836F;" d="M519.677,271.916c-5.234,0.188-10.035,1.031-13.463,2.094
						c15.771,0.268,30.938,0.566,45.482,0.871c0.611-0.494,1.006-0.988,0.992-1.438
						C552.523,269.426,530.681,271.543,519.677,271.916z"/>
				</g>
				<g style="opacity:0.39;">
					<path style="fill:#96836F;" d="M-428.19,305.203c58.402,1.435,112.611,6.469,151.033,9.738h51.955
						c-50.996-3.682-105.922-8.143-144.801-10.586c-15.822-0.99-36.457-1.551-58.188-1.84V305.203z"/>
					<path style="fill:#96836F;" d="M843.031,295.844v-2.291c-142.434,4.373-236.422,7.203-237.615,7.09
						c-5.01-0.471-104.149,4.182-139.201,6.967c0,0-53.221,2.826-103.971,7.332h21.147c51.566-4.361,148.498-9.457,180.967-10.586
						C574.347,304.008,684.029,300.664,843.031,295.844z"/>
					<path style="fill:#96836F;" d="M843.031,302.824c-175.908,5.639-300.094,9.949-313.729,11.287
						c-2.762,0.272-5.412,0.551-8.002,0.83h94.641c56.004-2.021,134.523-4.66,227.09-7.674V302.824z"/>
					<path style="fill:#96836F;" d="M386.101,300.172c16.021-3.248,38.055-10.67,81.119-14.854
						c43.057-4.182,60.277-11.719,90.121-3.25c11.098,3.145,123.607,2.27,285.689-0.822v-7.002
						c-147.371,4.418-246.008,7.227-249.637,6.893c-15.021-1.389-54.072-3.254-63.086-3.711
						c-9.016-0.467-84.127,6.965-113.166,11.142c-29.041,4.178-58.088,10.215-67.094,12.535
						c-9.016,2.324-78.117,5.109-103.15,10.219c-25.045,5.108-31.051,0.924-65.1,0.467c-34.051-0.467-152.217-0.467-185.268-0.93
						c-33.055-0.467-63.09-5.115-115.17-10.217c-52.078-5.111-74.106-6.508-91.127-7.43c-17.025-0.934-55.086,2.318-55.086,2.318
						c8.014-0.461,46.07,0.926,86.127,4.188c40.055,3.248,59.09,4.637,108.15,10.209c45.059,5.123,64.801,4.748,145.238,5.014
						h169.85c7.227-0.293,13.539-0.711,19.41-1.295C291.962,310.86,384.265,300.541,386.101,300.172z"/>
					<path style="fill:#96836F;" d="M-101.272,286.918c2.105,0.055,3.379,0.065,3.662,0.02L-101.272,286.918z"/>
					<path style="fill:#96836F;" d="M-332.028,277.998l289.574,8.242l169.717,0.678c-46.705-0.678-302.144-7.361-427.432-10.674
						C-311.141,276.856-321.809,277.44-332.028,277.998z"/>
				</g>
			</g>
		</g>
		<path style="fill-rule:evenodd;clip-rule:evenodd;fill:#8B5F27;stroke:#6D4A25;stroke-miterlimit:10;" d="M514.045,290.233
			c2.367,0,4.289-1.764,4.289-3.938V43.149c0-2.172-1.922-3.934-4.289-3.934H48.961c-2.367,0-4.287,1.762-4.287,3.934v243.146
			c0,2.174,1.92,3.938,4.287,3.938H514.045z"/>
	</g>
	<g>
		<circle style="fill-rule:evenodd;clip-rule:evenodd;fill:#11110E;" cx="111.571" cy="108.877" r="53.748"/>
		<circle style="fill-rule:evenodd;clip-rule:evenodd;fill:#FFFFFF;" cx="111.571" cy="108.877" r="44.994"/>
		<g>
			<defs>
				<circle id="SVGID_3_" cx="111.571" cy="108.877" r="31.191"/>
			</defs>
			<clipPath id="SVGID_4_">
				<use xlink:href="#SVGID_3_"  style="overflow:visible;"/>
			</clipPath>
			
				<circle style="clip-path:url(#SVGID_4_);fill-rule:evenodd;clip-rule:evenodd;fill:#FFFFFF;" cx="111.571" cy="108.877" r="31.191"/>
			<g style="clip-path:url(#SVGID_4_);">
				<rect x="89.132" y="75.834" style="fill-rule:evenodd;clip-rule:evenodd;fill:#F16447;" width="22.068" height="24.654"/>
				<rect x="104.744" y="66.432" style="fill-rule:evenodd;clip-rule:evenodd;fill:#A1B83B;" width="22.068" height="24.654"/>
				<rect x="109.412" y="89.34" style="fill-rule:evenodd;clip-rule:evenodd;fill:#B2C35E;" width="22.068" height="24.654"/>
			</g>
			<g style="clip-path:url(#SVGID_4_);">
				<rect x="99.132" y="102.834" style="fill-rule:evenodd;clip-rule:evenodd;fill:#F16447;" width="22.068" height="24.654"/>
				<rect x="114.744" y="93.432" style="fill-rule:evenodd;clip-rule:evenodd;fill:#A1B83B;" width="22.068" height="24.654"/>
				<rect x="119.412" y="116.34" style="fill-rule:evenodd;clip-rule:evenodd;fill:#B2C35E;" width="22.068" height="24.654"/>
			</g>
			<g style="clip-path:url(#SVGID_4_);">
				<rect x="59.132" y="112.834" style="fill-rule:evenodd;clip-rule:evenodd;fill:#F16447;" width="22.068" height="24.654"/>
				<rect x="74.744" y="103.432" style="fill-rule:evenodd;clip-rule:evenodd;fill:#A1B83B;" width="22.068" height="24.654"/>
				<rect x="79.412" y="126.34" style="fill-rule:evenodd;clip-rule:evenodd;fill:#B2C35E;" width="22.068" height="24.654"/>
			</g>
			<g style="clip-path:url(#SVGID_4_);">
				
					<rect x="87.831" y="107.692" transform="matrix(0.2861 -0.9582 0.9582 0.2861 -46.0481 188.4308)" style="fill-rule:evenodd;clip-rule:evenodd;fill:#F16447;" width="31.194" height="34.851"/>
				
					<rect x="81.408" y="82.745" transform="matrix(0.286 -0.9582 0.9582 0.286 -26.7256 164.4724)" style="fill-rule:evenodd;clip-rule:evenodd;fill:#A1B83B;" width="31.194" height="34.85"/>
				
					<rect x="114.325" y="85.686" transform="matrix(0.2861 -0.9582 0.9582 0.2861 -6.0474 198.1066)" style="fill-rule:evenodd;clip-rule:evenodd;fill:#B2C35E;" width="31.194" height="34.851"/>
			</g>
		</g>
	</g>
	<g>
		<circle style="fill-rule:evenodd;clip-rule:evenodd;fill:#11110E;" cx="134.128" cy="232.273" r="53.747"/>
		<circle style="fill-rule:evenodd;clip-rule:evenodd;fill:#FFFFFF;" cx="134.128" cy="232.273" r="44.993"/>
		<g>
			<defs>
				<circle id="SVGID_5_" cx="134.128" cy="232.273" r="31.19"/>
			</defs>
			<clipPath id="SVGID_6_">
				<use xlink:href="#SVGID_5_"  style="overflow:visible;"/>
			</clipPath>
			
				<circle style="clip-path:url(#SVGID_6_);fill-rule:evenodd;clip-rule:evenodd;fill:#FFFFFF;" cx="134.128" cy="232.273" r="31.19"/>
			<g style="clip-path:url(#SVGID_6_);">
				<rect x="111.689" y="199.229" style="fill-rule:evenodd;clip-rule:evenodd;fill:#F16447;" width="22.068" height="24.654"/>
				<rect x="127.3" y="189.826" style="fill-rule:evenodd;clip-rule:evenodd;fill:#A1B83B;" width="22.068" height="24.654"/>
				<rect x="131.968" y="212.737" style="fill-rule:evenodd;clip-rule:evenodd;fill:#B2C35E;" width="22.068" height="24.654"/>
			</g>
			<g style="clip-path:url(#SVGID_6_);">
				<rect x="121.689" y="226.229" style="fill-rule:evenodd;clip-rule:evenodd;fill:#F16447;" width="22.068" height="24.654"/>
				<rect x="137.3" y="216.826" style="fill-rule:evenodd;clip-rule:evenodd;fill:#A1B83B;" width="22.068" height="24.654"/>
				<rect x="141.968" y="239.737" style="fill-rule:evenodd;clip-rule:evenodd;fill:#B2C35E;" width="22.068" height="24.654"/>
			</g>
			<g style="clip-path:url(#SVGID_6_);">
				<rect x="81.689" y="236.229" style="fill-rule:evenodd;clip-rule:evenodd;fill:#F16447;" width="22.068" height="24.654"/>
				<rect x="97.3" y="226.826" style="fill-rule:evenodd;clip-rule:evenodd;fill:#A1B83B;" width="22.068" height="24.654"/>
				<rect x="101.968" y="249.737" style="fill-rule:evenodd;clip-rule:evenodd;fill:#B2C35E;" width="22.068" height="24.654"/>
			</g>
			<g style="clip-path:url(#SVGID_6_);">
				
					<rect x="110.388" y="231.087" transform="matrix(0.2861 -0.9582 0.9582 0.2861 -148.1821 298.1387)" style="fill-rule:evenodd;clip-rule:evenodd;fill:#F16447;" width="31.194" height="34.851"/>
				
					<rect x="103.964" y="206.14" transform="matrix(0.286 -0.9582 0.9582 0.286 -128.8604 274.1899)" style="fill-rule:evenodd;clip-rule:evenodd;fill:#A1B83B;" width="31.195" height="34.85"/>
				
					<rect x="136.881" y="209.082" transform="matrix(0.2861 -0.9582 0.9582 0.2861 -108.1803 307.8213)" style="fill-rule:evenodd;clip-rule:evenodd;fill:#B2C35E;" width="31.196" height="34.851"/>
			</g>
		</g>
	</g>
	<g>
		<circle style="fill-rule:evenodd;clip-rule:evenodd;fill:#11110E;" cx="270.515" cy="232.273" r="53.748"/>
		<circle style="fill-rule:evenodd;clip-rule:evenodd;fill:#FFFFFF;" cx="270.515" cy="232.273" r="44.994"/>
		<g>
			<defs>
				<circle id="SVGID_7_" cx="270.515" cy="232.273" r="31.191"/>
			</defs>
			<clipPath id="SVGID_8_">
				<use xlink:href="#SVGID_7_"  style="overflow:visible;"/>
			</clipPath>
			
				<circle style="clip-path:url(#SVGID_8_);fill-rule:evenodd;clip-rule:evenodd;fill:#FFFFFF;" cx="270.515" cy="232.273" r="31.191"/>
			<g style="clip-path:url(#SVGID_8_);">
				<rect x="248.078" y="199.229" style="fill-rule:evenodd;clip-rule:evenodd;fill:#F16447;" width="22.068" height="24.654"/>
				<rect x="263.687" y="189.826" style="fill-rule:evenodd;clip-rule:evenodd;fill:#A1B83B;" width="22.07" height="24.654"/>
				<rect x="268.355" y="212.737" style="fill-rule:evenodd;clip-rule:evenodd;fill:#B2C35E;" width="22.068" height="24.654"/>
			</g>
			<g style="clip-path:url(#SVGID_8_);">
				<rect x="258.078" y="226.229" style="fill-rule:evenodd;clip-rule:evenodd;fill:#F16447;" width="22.068" height="24.654"/>
				<rect x="273.687" y="216.826" style="fill-rule:evenodd;clip-rule:evenodd;fill:#A1B83B;" width="22.07" height="24.654"/>
				<rect x="278.355" y="239.737" style="fill-rule:evenodd;clip-rule:evenodd;fill:#B2C35E;" width="22.068" height="24.654"/>
			</g>
			<g style="clip-path:url(#SVGID_8_);">
				<rect x="218.078" y="236.229" style="fill-rule:evenodd;clip-rule:evenodd;fill:#F16447;" width="22.068" height="24.654"/>
				<rect x="233.687" y="226.826" style="fill-rule:evenodd;clip-rule:evenodd;fill:#A1B83B;" width="22.07" height="24.654"/>
				<rect x="238.355" y="249.737" style="fill-rule:evenodd;clip-rule:evenodd;fill:#B2C35E;" width="22.068" height="24.654"/>
			</g>
			<g style="clip-path:url(#SVGID_8_);">
				
					<rect x="246.775" y="231.087" transform="matrix(0.2861 -0.9582 0.9582 0.2861 -50.8122 428.8254)" style="fill-rule:evenodd;clip-rule:evenodd;fill:#F16447;" width="31.194" height="34.851"/>
				
					<rect x="240.351" y="206.141" transform="matrix(0.2861 -0.9582 0.9582 0.2861 -31.4928 404.862)" style="fill-rule:evenodd;clip-rule:evenodd;fill:#A1B83B;" width="31.195" height="34.849"/>
				
					<rect x="273.268" y="209.082" transform="matrix(0.2861 -0.9582 0.9582 0.2861 -10.8076 438.5089)" style="fill-rule:evenodd;clip-rule:evenodd;fill:#B2C35E;" width="31.196" height="34.851"/>
			</g>
		</g>
	</g>
	<g>
		<circle style="fill-rule:evenodd;clip-rule:evenodd;fill:#11110E;" cx="239.324" cy="110.873" r="53.748"/>
		<circle style="fill-rule:evenodd;clip-rule:evenodd;fill:#FFFFFF;" cx="239.324" cy="110.873" r="44.994"/>
		<g>
			<defs>
				<circle id="SVGID_9_" cx="239.324" cy="110.873" r="31.191"/>
			</defs>
			<clipPath id="SVGID_10_">
				<use xlink:href="#SVGID_9_"  style="overflow:visible;"/>
			</clipPath>
			
				<circle style="clip-path:url(#SVGID_10_);fill-rule:evenodd;clip-rule:evenodd;fill:#FFFFFF;" cx="239.324" cy="110.873" r="31.191"/>
			<g style="clip-path:url(#SVGID_10_);">
				<rect x="216.886" y="77.83" style="fill-rule:evenodd;clip-rule:evenodd;fill:#F16447;" width="22.068" height="24.654"/>
				<rect x="232.496" y="68.428" style="fill-rule:evenodd;clip-rule:evenodd;fill:#A1B83B;" width="22.07" height="24.654"/>
				<rect x="237.164" y="91.336" style="fill-rule:evenodd;clip-rule:evenodd;fill:#B2C35E;" width="22.068" height="24.654"/>
			</g>
			<g style="clip-path:url(#SVGID_10_);">
				<rect x="226.886" y="104.83" style="fill-rule:evenodd;clip-rule:evenodd;fill:#F16447;" width="22.068" height="24.654"/>
				<rect x="242.496" y="95.428" style="fill-rule:evenodd;clip-rule:evenodd;fill:#A1B83B;" width="22.07" height="24.654"/>
				<rect x="247.164" y="118.336" style="fill-rule:evenodd;clip-rule:evenodd;fill:#B2C35E;" width="22.068" height="24.654"/>
			</g>
			<g style="clip-path:url(#SVGID_10_);">
				<rect x="186.886" y="114.83" style="fill-rule:evenodd;clip-rule:evenodd;fill:#F16447;" width="22.068" height="24.654"/>
				<rect x="202.496" y="105.428" style="fill-rule:evenodd;clip-rule:evenodd;fill:#A1B83B;" width="22.07" height="24.654"/>
				<rect x="207.164" y="128.336" style="fill-rule:evenodd;clip-rule:evenodd;fill:#B2C35E;" width="22.068" height="24.654"/>
			</g>
			<g style="clip-path:url(#SVGID_10_);">
				
					<rect x="215.583" y="109.688" transform="matrix(0.2861 -0.9582 0.9582 0.2861 43.2443 312.2682)" style="fill-rule:evenodd;clip-rule:evenodd;fill:#F16447;" width="31.194" height="34.851"/>
				
					<rect x="209.16" y="84.742" transform="matrix(0.2861 -0.9582 0.9582 0.2861 62.5641 288.3038)" style="fill-rule:evenodd;clip-rule:evenodd;fill:#A1B83B;" width="31.194" height="34.849"/>
				
					<rect x="242.077" y="87.682" transform="matrix(0.2861 -0.9582 0.9582 0.2861 83.246 321.9451)" style="fill-rule:evenodd;clip-rule:evenodd;fill:#B2C35E;" width="31.194" height="34.851"/>
			</g>
		</g>
	</g>
	<g>
		<path style="fill-rule:evenodd;clip-rule:evenodd;fill:#FFFFFF;" d="M411.531,135.44c0-13.566-15.795-24.566-35.275-24.566l0,0
			c-19.482,0-35.277,11-35.277,24.566v86.17c0,13.568,15.795,24.566,35.277,24.566l0,0c19.48,0,35.275-10.998,35.275-24.566V135.44z
			"/>
		<g>
			<defs>
				<path id="SVGID_11_" d="M403.75,130.299c0-15.185-12.311-27.494-27.494-27.494l0,0c-15.186,0-27.496,12.309-27.496,27.494
					v96.451c0,15.186,12.311,27.496,27.496,27.496l0,0c15.184,0,27.494-12.311,27.494-27.496V130.299z"/>
			</defs>
			<clipPath id="SVGID_12_">
				<use xlink:href="#SVGID_11_"  style="overflow:visible;"/>
			</clipPath>
			<path style="clip-path:url(#SVGID_12_);fill-rule:evenodd;clip-rule:evenodd;fill:#F48164;" d="M403.75,130.299
				c0-15.185-12.311-27.494-27.494-27.494l0,0c-15.186,0-27.496,12.309-27.496,27.494v96.451c0,15.186,12.311,27.496,27.496,27.496
				l0,0c15.184,0,27.494-12.311,27.494-27.496V130.299z"/>
			<g style="clip-path:url(#SVGID_12_);">
				
					<rect x="271.31" y="144.468" transform="matrix(0.6185 -0.7858 0.7858 0.6185 12.9186 320.0209)" style="fill-rule:evenodd;clip-rule:evenodd;fill:#F16447;" width="129.49" height="4.474"/>
				
					<rect x="280.246" y="151.506" transform="matrix(0.6188 -0.7855 0.7855 0.6188 10.733 329.6053)" style="fill-rule:evenodd;clip-rule:evenodd;fill:#F16447;" width="129.49" height="4.475"/>
				
					<rect x="289.18" y="158.543" transform="matrix(0.6188 -0.7855 0.7855 0.6188 8.6103 339.3052)" style="fill-rule:evenodd;clip-rule:evenodd;fill:#F16447;" width="129.489" height="4.475"/>
				
					<rect x="298.116" y="165.581" transform="matrix(0.6188 -0.7855 0.7855 0.6188 6.4844 349.0005)" style="fill-rule:evenodd;clip-rule:evenodd;fill:#F16447;" width="129.488" height="4.475"/>
				
					<rect x="307.051" y="172.619" transform="matrix(0.6188 -0.7855 0.7855 0.6188 4.3617 358.7022)" style="fill-rule:evenodd;clip-rule:evenodd;fill:#F16447;" width="129.49" height="4.475"/>
				
					<rect x="315.968" y="179.957" transform="matrix(0.6185 -0.7857 0.7857 0.6185 2.0653 368.6425)" style="fill-rule:evenodd;clip-rule:evenodd;fill:#F16447;" width="129.491" height="4.475"/>
				
					<rect x="324.905" y="186.995" transform="matrix(0.6188 -0.7855 0.7855 0.6188 -0.1252 378.2064)" style="fill-rule:evenodd;clip-rule:evenodd;fill:#F16447;" width="129.49" height="4.474"/>
				
					<rect x="333.839" y="194.032" transform="matrix(0.6188 -0.7855 0.7855 0.6188 -2.2413 387.9199)" style="fill-rule:evenodd;clip-rule:evenodd;fill:#F16447;" width="129.49" height="4.475"/>
				
					<rect x="342.776" y="201.069" transform="matrix(0.6188 -0.7855 0.7855 0.6188 -4.3699 397.6081)" style="fill-rule:evenodd;clip-rule:evenodd;fill:#F16447;" width="129.487" height="4.476"/>
				
					<rect x="351.711" y="208.107" transform="matrix(0.6188 -0.7855 0.7855 0.6188 -6.4924 407.3101)" style="fill-rule:evenodd;clip-rule:evenodd;fill:#F16447;" width="129.49" height="4.476"/>
			</g>
		</g>
	</g>
	<g>
		<path style="fill-rule:evenodd;clip-rule:evenodd;fill:#FFFFFF;" d="M500.953,95.35c0-13.566-15.795-24.566-35.277-24.566l0,0
			c-19.48,0-35.275,11-35.275,24.566v86.17c0,13.566,15.795,24.566,35.275,24.566l0,0c19.482,0,35.277-11,35.277-24.566V95.35z"/>
		<g>
			<defs>
				<path id="SVGID_13_" d="M493.171,90.209c0-15.186-12.31-27.496-27.496-27.496l0,0c-15.184,0-27.494,12.31-27.494,27.496v96.451
					c0,15.186,12.311,27.494,27.494,27.494l0,0c15.186,0,27.496-12.309,27.496-27.494V90.209z"/>
			</defs>
			<clipPath id="SVGID_14_">
				<use xlink:href="#SVGID_13_"  style="overflow:visible;"/>
			</clipPath>
			<path style="clip-path:url(#SVGID_14_);fill-rule:evenodd;clip-rule:evenodd;fill:#A1B83B;" d="M493.171,90.209
				c0-15.186-12.31-27.496-27.496-27.496l0,0c-15.184,0-27.494,12.31-27.494,27.496v96.451c0,15.186,12.311,27.494,27.494,27.494
				l0,0c15.186,0,27.496-12.309,27.496-27.494V90.209z"/>
		</g>
	</g>
	<path style="fill-rule:evenodd;clip-rule:evenodd;fill:#11110E;" d="M506.091,148.367c0,2.471-2.004,4.475-4.475,4.475h-71.881
		c-2.471,0-4.475-2.004-4.475-4.475V128.5c0-2.471,2.004-4.475,4.475-4.475h71.881c2.471,0,4.475,2.004,4.475,4.475V148.367z"/>
	<g id="EYEBALL1">
		<circle style="fill:#736357;" cx="111.962" cy="109.721" r="21.484"/>
		<circle cx="111.962" cy="109.721" r="15"/>
		<circle style="fill:#FFFFFF;" cx="104.541" cy="108.799" r="5.578"/>
	</g>
	<g id="EYEBALL1_1_">
		<circle style="fill:#006837;" cx="239.296" cy="109.721" r="21.484"/>
		<circle cx="239.296" cy="109.721" r="15"/>
		<circle style="fill:#FFFFFF;" cx="231.874" cy="108.799" r="5.578"/>
	</g>
	<g id="EYEBALL1_2_">
		<circle style="fill:#00A99D;" cx="271.962" cy="233.721" r="21.484"/>
		<circle cx="271.962" cy="233.721" r="15"/>
		<circle style="fill:#FFFFFF;" cx="264.541" cy="232.799" r="5.578"/>
	</g>
	<g id="EYEBALL1_3_">
		<circle style="fill:#F4F400;" cx="132.629" cy="233.721" r="21.484"/>
		<circle cx="132.629" cy="233.721" r="15"/>
		<circle style="fill:#FFFFFF;" cx="125.207" cy="232.799" r="5.578"/>
	</g>
</g>
</svg>
